<?xml version="1.0" standalone="no"?>
<!DOCTYPE svg PUBLIC "-//W3C//DTD SVG 20010904//EN"
 "http://www.w3.org/TR/2001/REC-SVG-20010904/DTD/svg10.dtd">
<svg version="1.0" xmlns="http://www.w3.org/2000/svg"
 width="260.000000pt" height="260.000000pt" viewBox="0 0 260.000000 260.000000"
 preserveAspectRatio="xMidYMid meet">
<metadata>
Created by potrace 1.14, written by Peter Selinger 2001-2017
</metadata>
<g transform="translate(0.000000,260.000000) scale(0.100000,-0.100000)"
fill="#000000" stroke="none">
<path d="M1175 2392 c-221 -15 -412 -96 -546 -232 -118 -118 -168 -238 -175
-416 -8 -202 45 -362 157 -474 79 -78 243 -155 389 -184 107 -21 192 -36 230
-40 25 -3 56 -8 70 -11 14 -3 40 -8 59 -11 60 -10 74 -13 120 -29 26 -8 58
-26 73 -40 45 -42 61 -132 34 -196 -40 -96 -133 -139 -288 -134 -154 5 -248
63 -288 178 -11 31 -20 66 -20 77 0 19 -6 20 -120 20 -152 1 -266 1 -380 0
l-91 0 6 -56 c33 -341 235 -555 593 -629 199 -41 454 -39 626 5 151 38 280
111 381 216 136 141 195 310 181 519 -12 173 -61 292 -163 392 -73 73 -232
142 -404 177 -105 21 -182 33 -263 41 -130 13 -239 54 -288 108 -38 43 -43
133 -10 189 68 115 330 127 433 18 30 -31 59 -90 59 -121 0 -10 8 -22 18 -27
9 -4 139 -8 287 -7 l270 1 -2 43 c-8 132 -73 286 -170 401 -90 106 -297 196
-498 216 -63 6 -227 10 -280 6z"/>
</g>
</svg>
